<?xml version="1.0" encoding="UTF-8" standalone="no"?>
<svg
   xmlns:dc="http://purl.org/dc/elements/1.1/"
   xmlns:cc="http://creativecommons.org/ns#"
   xmlns:rdf="http://www.w3.org/1999/02/22-rdf-syntax-ns#"
   xmlns:svg="http://www.w3.org/2000/svg"
   xmlns="http://www.w3.org/2000/svg"
   xmlns:sodipodi="http://sodipodi.sourceforge.net/DTD/sodipodi-0.dtd"
   xmlns:inkscape="http://www.inkscape.org/namespaces/inkscape"
   inkscape:version="1.0 (4035a4fb49, 2020-05-01)"
   sodipodi:docname="checkbox-on_1.svg"
   id="svg34"
   xml:space="preserve"
   enable-background="new 0 0 27 23"
   viewBox="0 0 27 23"
   height="23px"
   width="27px"
   y="0px"
   x="0px"
   version="1.1"><metadata
   id="metadata40"><rdf:RDF><cc:Work
       rdf:about=""><dc:format>image/svg+xml</dc:format><dc:type
         rdf:resource="http://purl.org/dc/dcmitype/StillImage" /><dc:title></dc:title></cc:Work></rdf:RDF></metadata><defs
   id="defs38" /><sodipodi:namedview
   inkscape:current-layer="svg34"
   inkscape:window-maximized="1"
   inkscape:window-y="-9"
   inkscape:window-x="-9"
   inkscape:cy="-0.74819277"
   inkscape:cx="13.5"
   inkscape:zoom="36.086957"
   showgrid="false"
   id="namedview36"
   inkscape:window-height="1001"
   inkscape:window-width="1920"
   inkscape:pageshadow="2"
   inkscape:pageopacity="0"
   guidetolerance="10"
   gridtolerance="10"
   objecttolerance="10"
   borderopacity="1"
   bordercolor="#666666"
   pagecolor="#ffffff" />
<g
   id="Layer_1">
</g>
<g
   id="Layer_2">
	<g
   id="g31">
		<polygon
   id="polygon27"
   points="7.285,7.486 4.456,10.315 12.239,18.098 26.171,4.166 23.343,1.337 12.239,12.439   " />
		<path
   id="path29"
   d="M21,20c0,0.542-0.458,1-1,1H3c-0.542,0-1-0.458-1-1V3c0-0.542,0.458-1,1-1h16.908l1.585-1.585C21.051,0.158,20.545,0,20,0    H3C1.35,0,0,1.35,0,3v17c0,1.65,1.35,3,3,3h17c1.65,0,3-1.35,3-3v-9.829l-2,2V20z" />
	</g>
</g>
<path
   id="path50"
   d="M 8.3596865,14.188 4.4802605,10.308499 5.8795078,8.9090464 7.2787549,7.5095934 9.7451583,9.9758812 c 1.3565217,1.3564578 2.4788357,2.4662878 2.4940297,2.4662878 0.0152,0 2.521644,-2.4939937 5.569887,-5.5422075 l 5.542259,-5.5422072 1.399278,1.3994841 1.399278,1.399484 -6.955389,6.9553886 -6.955388,6.955389 z"
   style="fill:#ffffff;stroke-width:0.0277108" /><path
   id="path52"
   d="m 2.7481928,22.970944 c -1.4171061,-0.128319 -2.5382005,-1.22147 -2.71265452,-2.64504 -0.04322827,-0.352749 -0.04322827,-17.2990586 0,-17.6518076 C 0.19650841,1.3605563 1.1543166,0.32968843 2.4607647,0.06387846 2.6947282,0.01627625 3.1324086,0.01385542 11.504819,0.01385542 c 8.430492,0 8.808037,0.0021252 9.033735,0.05085022 0.24876,0.05370373 0.671321,0.20833723 0.827171,0.30269822 l 0.09283,0.0562068 -0.78529,0.78565364 -0.785291,0.7856536 -8.57682,0.00706 -8.5768197,0.00706 -0.1578547,0.073993 C 2.3841114,2.1732014 2.196043,2.3558941 2.0917558,2.5539005 l -0.0779,0.1479067 V 11.5 20.298193 l 0.0779,0.147906 c 0.1042872,0.198007 0.2923556,0.380699 0.4847268,0.470872 l 0.1578547,0.07399 h 8.7704817 8.770482 l 0.131648,-0.0608 c 0.182651,-0.08436 0.411577,-0.309671 0.50792,-0.49991 l 0.08091,-0.159771 0.0074,-4.046378 0.0074,-4.046379 0.983286,-0.982993 0.983286,-0.982994 v 5.047094 c 0,4.388236 -0.0055,5.075927 -0.0419,5.267965 -0.218304,1.150807 -1.084369,2.07683 -2.211512,2.364615 -0.122619,0.03131 -0.360959,0.06834 -0.529646,0.0823 -0.371416,0.03074 -17.1051561,0.02808 -17.4458592,-0.0028 z"
   style="fill:#ffffff;stroke-width:0.0277108" /></svg>
